<svg fill="black" viewBox="0 0 168 119" xmlns="http://www.w3.org/2000/svg" version="1.1" xmlSpace="preserve">
    <g>
        <path
            d="m168.01,62.04c-0.6,-33.4 -33.3,-60.9 -69.7,-60.5c-36.8,-6.4 -92.2,6.4 -97.4,52.6l0,-0.3c-2.2,14.3 -1.3,33.5 12.8,43.6c-0.1,-0.1 -0.2,-0.1 -0.2,-0.2c16.7,10 35.9,18.4 58.1,20.8l-0.3,0c38.4,3.5 96.6,-0.2 96.7,-56zm-27.5,42.9c0.2,-1.4 -0.2,-3.1 3.3,-3.8c-0.2,0.4 -1.1,3.3 -3.5,4.3c0.1,-0.2 0.1,-0.4 0.2,-0.5zm7,-3.2c-3.7,3.6 -2.8,-1 1.7,-3.8c-0.5,1.3 -1.1,2.5 -1.7,3.8zm7.3,-6.9c-1,1 -1.1,1.1 -3.7,3.6c1.3,-3.3 2.8,-6.2 5.5,-10.7c-0.6,1.7 0,4.3 -1.8,7.1zm5.9,-54.1c1.9,3.3 3.7,8.6 4.6,14.4c0.1,1.1 0.3,1.3 0.4,6.6c-1,-4.9 -2,-15.2 -8.7,-18.2c-0.3,-3.6 -6.6,-11.7 -1.1,3.3c-5,-3.9 -6.3,-10 -10,-17.3c1.3,0.2 2.9,0.6 5.8,1.8c3.4,1.5 6.5,3.7 9,9.4zm-11.1,8c-9.2,-6 -22,-8.5 -34.9,-4.3c0.6,-1.3 0.1,-2.1 -2.4,-5.1c5.8,1.8 5.3,2.1 5.7,0.7c-4.2,-2.3 -4,-0.3 -0.4,1.4c0,-2 -0.2,-2.3 -1.6,-3.8c1.3,0.2 6,-3.3 7.3,1.6c-6.5,2.5 7.3,1.5 11.5,1.2c2.9,-1 12.7,7.3 6.6,-3.2c0.9,0.7 7.5,1 2.4,-1.5c-3.1,0 -4,-1.4 -5.8,-6.2c7.2,-2.9 11,8.9 11.8,19.4c-0.1,0 -0.1,-0.1 -0.2,-0.2zm-41.5,-2.1c-0.4,-0.4 -1.1,-1.2 -2.5,-2c2.4,-1.6 4.5,-7.4 8.2,0.1c-1.7,0.7 -2.3,0.9 -5.7,1.9zm30.3,-9.8l-0.1,0c0.9,-0.1 1.3,0.8 2,2.9c-1.5,-1.1 -6.3,0.5 -7.1,-3.6c1,0.1 2,0.3 3,0.4l-0.3,0c0.8,0 1.6,0.1 2.5,0.3zm-123.7,58.4c-2.6,-2 -6.7,-6 -8.9,-11.2c-0.9,-2.4 -1.7,-5 -2.7,-9.7c3,1.7 3.3,4.3 6.1,9.2c-6.2,-3.3 5.8,9.2 7.8,6.2c4.9,1.7 4.9,6.3 9.6,12.1c-3.1,-1.9 -7.7,-4.3 -11.9,-6.6zm-7.5,-20.9c-0.5,-2.1 -0.7,-3.1 -0.8,-7.2c3.4,3.4 5.5,7.5 8.3,14.3c-0.5,-0.4 -1.1,-0.8 -1.6,-1.2c0.1,0 0.1,0.1 0.2,0.1c-1.5,-1.7 -4.6,-2.5 -6.1,-6zm16.8,7.4c0.4,1.3 -0.3,1.4 1.7,5.7c-1.5,-0.9 -6.4,-2.2 -8.1,-5.4l0,0.1c-1.2,-1.8 -2,-2.8 -3.2,-6.4c2,1.4 5.9,4.1 9.6,6zm16.2,26.1c-6.4,-1.9 -12.7,-5.4 -16.2,-13.8c7.2,3.9 12.9,7.2 20.5,15.4c-1.5,-0.5 -2.9,-1 -4.3,-1.6zm78.4,6.2c-16.8,3.5 -35.1,3.6 -53.8,0.8l0.3,0c-4.3,-0.7 -9.8,-1.8 -16.4,-3.9c0.5,-0.7 -1.3,-1.8 -3.1,-3l0.2,0.2c-2,-1.7 -2.3,-1.7 -5.6,-5.4c3.1,2.1 9.3,1.7 13.4,5.5c2.6,3.8 11.3,5.7 1.9,-1c0.9,-0.4 5.3,2.4 6.5,-0.2c-1.4,-1.9 -0.8,-0.7 -6.2,-1.9l-0.2,0c-0.2,0 -0.3,0 -0.5,-0.1l0.3,0l-0.3,0l0.1,0c-1.8,-0.2 -2.7,-0.5 -4.8,-3.2c2.2,1 -3.1,-12.2 -6,-12.9c-0.9,3 2.8,7.7 4.8,11.9c-0.9,0 -2.2,0.6 0.2,2.8c-3.4,-1.8 -9.4,-1.4 -13.2,-6.2c-2.9,-0.5 -3,-0.8 -2.5,-0.1c2.3,0.2 -0.1,-4.9 0,0c-7.2,-5.5 -19.2,-7.7 -24.3,-17.8c4.9,5.2 12.9,7.1 19.3,12.2c2.2,4 4.3,-0.4 -0.1,-3.2c-0.9,2.2 -4.7,-19.5 -5.1,-9.2c-2.1,-1.4 -1,-0.4 -7.4,-4.6l0.1,0.1c-4.2,-2.5 -4.5,-8 -4.5,-13.9c1.3,0 7.1,9.1 9.2,5.4c-2.9,-1.2 -2,-6.7 -0.4,-11.9c6.2,3.5 -3.2,-1.7 5.4,-8.6c0.5,-0.8 6.9,-2.6 4,-4.8c-4.1,3.2 -4,-1.2 -9.2,-4.6c-2.6,0.6 1.7,3.9 4.8,7.3c-2.1,1.6 -3.3,2.3 -5.8,7.4c-4.6,-4.8 -4.9,-4.2 -4,-5.9c3.3,5.3 1.6,3.8 -0.9,1.7c1.2,-2.1 -0.3,-5.1 -1.6,-1.4c-2,-2.7 -1.6,4.2 -3.2,11.2c-0.3,0.4 -5.1,-6.6 -5.1,-1.9c5.4,3.8 4.6,4.7 5.5,14.2c-0.9,-1.8 -4.6,-3.4 -4.2,-8.6c0,-0.8 -2.3,-1.7 -2,1c-1.5,-0.7 0.3,6 0.6,12c-0.2,0.1 -0.8,-1.3 -2.2,-1.1c-1,-5.5 -0.6,-11 0.5,-18.7c1.9,-12.5 8.3,-26.4 21,-35.6c12.4,-9.4 29.5,-11.5 45.8,-16.1c12.5,-1.2 24.8,1.8 39.5,3l-0.2,0c10.4,1.4 22.3,4.6 32.2,12.5l-0.1,-0.1l0.1,0.1c-2,0.5 -6.6,-1.4 -9.7,1.1c0.7,0.8 0.7,1.2 3.4,0.9c5,-0.1 9.2,-1.3 14.1,5.5c1.9,-0.3 -18.1,-5.7 -14.6,-0.4c5.6,-0.6 12.5,0.2 18.9,5.3l0,-0.1c0.1,0.1 0.2,0.2 0.3,0.4c-2.6,-1.2 -6.1,-2.8 -10.9,-2.9c-2.4,-0.3 -5.5,1.9 -7.6,-2.6c-1.3,0.4 -2,0.3 -0.4,3.3c-1.7,2 1.2,0.6 3.1,6.9c-11.4,2.2 -7.2,-16.3 -20.4,-5.6c6,2.8 5.2,-8.8 14.1,9.1c-2.1,-0.5 -6.8,2.4 -8.3,-2.4c-0.3,-2.7 -6.4,-5.2 -10,-9.5c-4.7,-0.9 3,5.4 6,8.2c-3.1,1.1 -6.6,1.5 -9.9,-3.3c-3.7,-1 0.2,3.5 2.7,5.5c-0.5,0.1 -1.5,1.9 -3.6,-0.4c2.5,-2.7 -2.9,-0.6 -6.5,-4.3c-0.8,0.6 -6.6,4.3 -3.5,6c1.6,-0.4 1.3,-1.3 3.6,-3.5c0.7,0.6 1.3,0.7 3.2,1.9c-0.1,1.2 -3.5,1.2 -3.6,5.3c0.3,0.1 1,0.9 1.9,-0.5c1.5,-0.3 2.1,-5.4 5.1,-2.3c-1.3,1 -3.2,2.2 -5.4,4.6c-1,0.1 -5.4,-2.7 -6.7,-0.1c0.6,0.9 0,1 2.9,1.3l-0.3,0c1,0.1 1.9,0.3 2.8,0.6c-0.7,2.8 2,0.2 3.6,2.1c-0.1,-0.1 -2.3,0.9 -0.4,2.3c-1.1,0.5 -1.6,1 -4.2,1.9c0.3,-0.3 0.1,-1.4 -1.1,-2l0.2,0.2c-3.5,-3 -9.3,-4.5 -16.9,-2.1c-0.5,0.1 -1.8,2.9 2.2,1.6c4.9,-1 9,-2.1 14.3,2.7c-7.3,2.1 -15.9,1.6 -24.9,-0.6c-0.1,-0.2 5.3,-2.9 1.6,-3.7c-2.9,1.5 -2.6,4.7 -9.8,1c3.9,-2.5 12.9,-16.3 -1.7,-1.2c-3.9,-2.6 0,-6.2 4.9,-9.6c0.3,-1.6 -1.8,-1.7 -3.4,0c1.9,-1.9 4,-4.1 8.4,-5.6c0.7,4.9 4,-2.1 0.2,-3.9c-0.9,1.7 -1.1,2.4 -4.7,3.9c-1.9,-4.2 -2.9,-3.4 3,-7.4c-1.6,-1.6 -4.7,0.6 -10.6,4.2c0,-1.4 -5.1,-4.3 -0.6,-6c0.3,-0.7 7,-1.3 3,-3.1c-3.3,-0.4 -5.3,5.6 -9.8,0.8c2.3,0.3 5.7,-5 -2,-1.2c-0.3,0 -4.5,-3.2 -4,0c0.3,0.4 0.4,0.4 1.8,1c-0.4,0.3 -11.8,6.1 -6.6,7.1c2.6,-1.6 7.8,-9.5 12.6,-3.2c-1.5,2.1 -6,3 -6.1,7.3c0.4,0 0.8,0.9 2.7,-1.4c0.5,0.5 1.2,1.2 2.6,2.7c-0.9,1.6 0.3,0.4 2.7,3.3c0.4,0.2 1.5,3.5 3,1.1c-0.1,-0.9 -0.1,-1 -2.6,-4c0.9,-0.6 1.8,-1.1 2.7,-1.7c-0.3,1 4.4,6.7 2.7,0.9c-1,-1.5 -1.4,-2.3 2.1,-3.9c0.1,2.2 4.3,3.6 -1.1,6.9c-1.3,3.2 -1.5,3 -0.7,3.3c1,-2.8 -1.3,-2.9 0,0c-1.1,1 -2.4,2.2 -3.8,4.8l-0.3,-0.3l0,0.1c-3.2,-5.7 -17.6,-15 -2.6,0.4c0.3,0.4 0.6,0.7 0.9,1.1c-12.6,-3 27.4,23.6 53.4,3.1c0,0 -0.1,0 -0.1,0.1c10.9,-6.1 25.4,-2.5 37,2.6c1.7,1.4 2.6,-0.9 2,-5.2c2.9,1.2 3.6,7.5 7.7,7.6c1.3,-2.4 -0.9,-0.3 -1.8,-6.9c1.6,3.2 7,9 4.7,13.6c-8.5,-7.4 5.9,8.1 0.8,20.3c-0.4,-2.1 0.1,-9.1 -3.4,-11.1c-2.4,1.2 6.1,11.5 -1.6,21.2c2,-22.1 -1.5,4.3 -17.3,9.9c-1.3,-6.6 -2.3,3.7 -3.5,7.3c-4.6,2.5 -10.4,4.6 -18.7,6.3zm-104.7,-64.9c0,-0.1 0,0 0.1,-0.2c5,4.4 5.2,1.7 3,14.1c-4.1,-2.2 -6.6,-7.1 -3.1,-13.9c0,-0.1 0,0 0,0zm44.1,-17.3c-1.3,-1.2 -4.2,-3.5 0.5,-5.9c0.8,1.5 4.9,4.5 -0.5,5.9zm106.5,42c0,-0.9 0,0 0.3,-2.1c-0.1,0.4 0,0.4 -0.3,2.1z"
            id="svg_1" />
        <path
            d="m155.61,28.84l0.2,0.2c-0.1,0 -0.1,-0.1 -0.2,-0.2zm-89.5,22.2c-0.1,-0.1 0,0 -0.3,-0.1c0.1,0 0.2,0.1 0.3,0.1zm9.7,-9.9c-0.7,1.1 -5.5,2.3 -5.4,5.1c1.2,0.6 0.7,1.2 3.5,-1.1c4.1,-4 10.3,-4 17.1,-2.7c4.3,-2.9 -10.2,-4.5 -15.2,-1.3zm-61.8,7.7s0,0.1 -0.1,0.1c0.1,0 0.1,0 0.1,-0.1zm141.6,22.1c0.3,0 -7.3,-15.8 -11,-11.4c2.8,2.7 7.5,6.1 9.1,12c-0.6,4.1 3.8,8.9 1.9,-0.6zm-4.1,6.8c-2.1,-10.4 -6.1,-2.5 0.4,5.4c1.2,-1.1 0.5,-2.4 -0.4,-5.4zm-3.9,9.5c-1.3,-2.6 -1,-7.5 -4,-10.8c-0.6,0.4 -1.5,0 -0.3,3.5c1.6,3.8 1.7,7.4 3.6,12c1,0 1.9,-2 0.7,-4.7zm-6.5,1.9c-0.6,-7.2 -4.7,-13.2 -1.9,2.3l0,-0.1c-1.2,2.6 2.9,4 1.9,-2.2zm-6.6,-1.9c-0.4,6.5 -0.9,6.4 0.3,5.7c-0.8,-5.7 -2.7,-3.7 -1.2,0.7c0.7,-1 3.3,-4.1 0.9,-6.4zm-6.2,0.5c-1.2,4.8 2,11.2 1.9,0c0.1,0 -0.8,-2.1 -1.9,0zm-86.8,8.4c-3.8,-2.3 -4.3,-7.7 -7.7,-13.9c-0.3,0 -0.6,-0.6 -1.4,0.4c-0.8,0.8 8.4,21.3 9.1,13.5zm14,-1.7c1.1,1 1.7,1.5 0,0c2,2.6 1.6,2.9 1.6,1.5c-2.9,-2.9 -4.8,1.1 -1.6,-1.5z"
            id="svg_2" />
        <path
            d="m136.91,51.94c9,0.5 15.2,7.5 21.8,14.3c2.2,-1.3 -6.7,-11.2 -12.2,-13.6c0.1,0 0.1,0 0.2,0.1c-0.2,-0.1 0,0 -0.6,-0.2c0,0 -0.1,0 -0.2,-0.1c-2.1,-0.8 -3.6,-1.1 -8.5,-2.4c-0.5,0 -2,0.6 -0.5,1.9zm9,0.5zm-63.1,-20.5c1.1,-0.3 2.6,-5 0.5,-6.7c-1.1,0.3 -2.5,4.9 -0.5,6.7zm9.8,-0.4c0.6,0.4 5,-3.8 3.8,-6.1c-0.6,-0.6 -4.5,2.4 -3.8,6.1zm-3.7,-3.2c-1.9,2.3 -0.1,7.4 2.3,-0.4c2,-2.5 0.4,-7.6 -2.3,0.4zm-66.5,2c-7.1,2.2 -16.7,12.2 -15.8,21.7c0.3,-0.1 1,0.2 1.7,-2c1.8,-5.1 4.2,-11.2 9.8,-15.4c0.8,-0.4 0.9,-0.6 4.8,-2.4c0.1,-0.1 1,-1.3 -0.5,-1.9zm7.6,-1.7c4.7,-0.4 9.9,0.9 15.6,1.7c-0.3,-3 -6.2,-3.4 -11.6,-3.5c0.9,-0.3 1.3,-2 3.9,-2.5l-0.1,0c1.3,-0.9 2.3,1.3 5.8,-0.1c-0.4,-1.2 0,-1.4 -4,-1.9c0.9,-2.2 9.3,-3.2 8.4,-6.4c-3.6,0.4 -6.4,2.8 -12,6.8c-0.5,0.3 -4.3,-0.1 -2.8,2.3c-0.1,0.4 -0.9,0.1 -1.6,1.8c-2.5,1.4 -2.5,0.8 -1.6,1.8c1.3,-1.4 0.9,-3.2 0,0zm31.4,-13.5c1,1.9 6.6,2.1 -0.2,-2.6c-0.2,-0.1 -1.3,-0.9 -1.7,0.7c0.6,1 0.2,0.5 1.9,1.9zm8,-1.3c0.6,1.2 2.9,-2.4 -0.2,-1.5c-0.1,0.2 -0.6,0.7 0.2,1.5zm7.8,1c1.9,1.6 2.7,-4.3 0.3,-6c-1.5,0.5 -1,3 -0.3,6zm10.4,1.8c1.2,-0.5 3.6,-4.6 2.2,-7c-1.3,0.3 -3.5,4.6 -2.2,7zm8.4,2c0.6,-2.2 9.2,-5.8 6.4,-8.7c-0.8,0.7 -11.6,8.2 -6.4,8.7zm7,1c0.5,1.7 12.8,-7 4.1,-4.1c-0.6,0.8 -5,1.5 -4.1,4.1zm4.4,3.9c1.9,-0.3 7.7,-3.5 9.1,-6.9c-2.1,-0.4 -8.3,3 -9.1,6.9zm7.5,0.2c-3.6,2.9 8.2,0.4 9.9,-2.1c-1.9,-1.5 -5.4,-0.5 -9.9,2.1zm-29.6,45.5c1.5,5.6 1.7,6.2 1.1,4.2c0.4,3.1 -0.1,3.3 0.6,2.1c-4.2,-9 -3.8,-0.2 -0.7,1.2c-0.2,-4.3 -0.4,-5.3 -1,-7.5zm6.5,-0.5c1.3,8.5 6.6,11.9 1.1,-3.3c-1.1,-1.7 -2.7,0 -1.1,3.3zm9,-1.7s0,0.1 0.1,0.1c-0.1,0 -0.1,0 -0.1,-0.1z"
            id="svg_3" />
        <path
            d="m99.91,65.04c0.3,0.6 0.6,1.3 0.9,1.9l0,-0.1c0.3,0.7 0.5,1.1 1.2,2.9l0,-0.1l0.1,0.2l0,-0.1s0,0.1 0.1,0.1c0,-0.1 -0.1,-0.2 -0.1,-0.2c5.1,16.1 4.2,-2.3 -2.5,-8.9c-1.8,0.6 -0.9,2 0.3,4.3zm0.8,1.9zm1.3,2.9c0,0.1 0,0.1 0,0c0,0.1 0,0.1 0,0zm7.4,-5.3c2.8,3 3.1,10 6.8,13.9c0.5,-0.4 1.2,-0.8 -0.3,-4.8c2,-0.1 -13.8,-24.9 -6.5,-9.1zm13,6.5l-0.2,-0.2c12.3,15 -2.6,-9.5 -8.7,-13.8c-2.9,2.4 7.1,10.3 8.9,14zm-0.1,-11.6c3.2,2.4 5,8.8 9.6,11.5c0.1,-0.3 1,-0.5 -0.5,-2.8c1.3,-0.3 -19.7,-24.4 -9.1,-8.7zm6.2,-3c1.3,-0.6 6.5,11.8 7.8,6.8c1,-2 -18.6,-20.4 -7.8,-6.8zm4.4,-2.4c2.5,2.9 5.3,5.7 8.6,11.5c0.2,0 1.6,0.6 1.6,-1.2c1.8,-0.8 -19.3,-23.5 -10.2,-10.3zm-41,55.7c-0.2,1.1 -0.7,1.3 0,0c0.1,0.3 -0.8,-4.7 -2.3,-1.2c0.4,0.3 -0.8,1.7 2.3,1.2zm33.4,-3.1c-0.8,-0.4 8.2,-1.2 4.2,-3.8c-1,0.2 -1.2,0.5 -3.5,1.3c1.8,-3 -0.9,-6.9 -2.4,0.9c-2,0.7 -4.2,1.4 -7.6,2.3c-0.1,-0.1 1.8,-7 -1.4,-4.3c-0.7,2.8 1.2,5.5 -6.4,6.3c0.4,-5.3 -0.9,1.4 -7.5,1.5c-2,-2.4 -2,-2.9 -1.9,-1.4c0.4,-2.5 0.9,-2.5 -0.1,-1.5c1.4,2 3.2,0.9 0.9,-0.9c-1.1,3.4 -0.1,4.5 -2.7,4.2c-4.8,-0.9 -10.2,3.2 1.9,1.9c0.1,2.3 1.8,-0.6 6.7,-1c-0.9,6.1 1.4,-1.6 8.1,-1.9c-0.1,2.9 2.9,-1.7 9.3,-2.7c-1.3,1.9 1.4,4.8 2.4,-0.9z"
            id="svg_4" />
        <path
            d="m133.91,99.94c-1.5,0.6 -4.8,6.3 -3.4,9.7c1.6,-0.8 4.8,-6.2 3.4,-9.7zm-53.2,10.3l-0.5,0c3.2,-0.3 -5.7,-6.9 -4,-1.9c0.7,0.3 1.3,0.8 3.3,1.9c-3.6,-0.5 -6.7,1.6 -10.8,-2c-1.4,-1.9 -6.1,-1.3 -0.7,1.8c-7.2,1.4 4.9,2.7 10.7,2.2c3.1,-1.5 3.1,-0.9 2,-2c-1.6,1.5 -1.2,3.5 0,0zm-43.2,-67.7c2.4,-2 -3.3,-5.6 -5.4,-9.2c-6.9,-7.4 1.7,7.2 5.4,9.2zm11.3,1.7c-6,-0.9 -13.9,-1.6 -18.7,6c-0.4,0.4 0,0 -1,1.5c0,-0.1 -0.3,2.5 1.9,1.1c2.9,-5.2 8.2,-8.8 17.8,-6.4c0.4,0 2.2,-1.6 0,-2.2zm-22.2,15.9c-1.4,0.4 -3.8,4.8 -2.4,7.3c1.2,-0.5 3.9,-4.8 2.4,-7.3zm16.2,-5c-2.6,0.2 -11.5,13.9 -6.2,17c0.5,-1.1 0.3,-1.9 0.9,-4.4c0.2,-0.9 0,0.1 1,-4.4c-1,-2.4 7,-5.7 4.3,-8.2z"
            id="svg_5" />
    </g>
</svg>